<mxfile host="app.diagrams.net" agent="Mozilla/5.0 (Windows NT 10.0; Win64; x64) AppleWebKit/537.36 (KHTML, like Gecko) Chrome/131.0.0.0 Safari/537.36" version="26.0.8">
  <diagram name="Page-1" id="y7orqEMJpoMpiXbzdtzQ">
    <mxGraphModel grid="1" page="1" gridSize="10" guides="1" tooltips="1" connect="1" arrows="1" fold="1" pageScale="1" pageWidth="850" pageHeight="1100" math="0" shadow="0">
      <root>
        <mxCell id="0" />
        <mxCell id="1" parent="0" />
        <mxCell id="Kn5c6uKsc-1rzqZwkJC5-6" value="" style="group" connectable="0" vertex="1" parent="1">
          <mxGeometry x="-850" y="320" width="130" height="70" as="geometry" />
        </mxCell>
        <mxCell id="Kn5c6uKsc-1rzqZwkJC5-1" value="Serenity Styles" style="rounded=0;whiteSpace=wrap;html=1;" vertex="1" parent="Kn5c6uKsc-1rzqZwkJC5-6">
          <mxGeometry x="10" width="120" height="70" as="geometry" />
        </mxCell>
        <mxCell id="Kn5c6uKsc-1rzqZwkJC5-2" value="" style="rounded=0;whiteSpace=wrap;html=1;" vertex="1" parent="Kn5c6uKsc-1rzqZwkJC5-6">
          <mxGeometry y="11.666666666666668" width="20" height="11.666666666666668" as="geometry" />
        </mxCell>
        <mxCell id="Kn5c6uKsc-1rzqZwkJC5-3" value="" style="rounded=0;whiteSpace=wrap;html=1;" vertex="1" parent="Kn5c6uKsc-1rzqZwkJC5-6">
          <mxGeometry y="35" width="20" height="11.666666666666668" as="geometry" />
        </mxCell>
        <mxCell id="Kn5c6uKsc-1rzqZwkJC5-7" value="" style="group" connectable="0" vertex="1" parent="1">
          <mxGeometry x="-530" y="160" width="130" height="90" as="geometry" />
        </mxCell>
        <mxCell id="Kn5c6uKsc-1rzqZwkJC5-8" value="User" style="rounded=0;whiteSpace=wrap;html=1;" vertex="1" parent="Kn5c6uKsc-1rzqZwkJC5-7">
          <mxGeometry x="10" width="120" height="90" as="geometry" />
        </mxCell>
        <mxCell id="Kn5c6uKsc-1rzqZwkJC5-9" value="" style="rounded=0;whiteSpace=wrap;html=1;" vertex="1" parent="Kn5c6uKsc-1rzqZwkJC5-7">
          <mxGeometry y="15" width="20" height="15" as="geometry" />
        </mxCell>
        <mxCell id="Kn5c6uKsc-1rzqZwkJC5-10" value="" style="rounded=0;whiteSpace=wrap;html=1;" vertex="1" parent="Kn5c6uKsc-1rzqZwkJC5-7">
          <mxGeometry y="60" width="20" height="15" as="geometry" />
        </mxCell>
        <mxCell id="Kn5c6uKsc-1rzqZwkJC5-21" value="" style="endArrow=classic;html=1;rounded=0;" edge="1" parent="1">
          <mxGeometry width="50" height="50" relative="1" as="geometry">
            <mxPoint x="-720" y="350" as="sourcePoint" />
            <mxPoint x="-520" y="200" as="targetPoint" />
            <Array as="points">
              <mxPoint x="-680" y="350" />
              <mxPoint x="-680" y="200" />
            </Array>
          </mxGeometry>
        </mxCell>
        <mxCell id="Kn5c6uKsc-1rzqZwkJC5-24" value="" style="endArrow=classic;html=1;rounded=0;entryX=0;entryY=0.5;entryDx=0;entryDy=0;" edge="1" parent="1" target="Kn5c6uKsc-1rzqZwkJC5-26">
          <mxGeometry width="50" height="50" relative="1" as="geometry">
            <mxPoint x="-720" y="370" as="sourcePoint" />
            <mxPoint x="-680" y="560.6666259765625" as="targetPoint" />
            <Array as="points">
              <mxPoint x="-680" y="370" />
              <mxPoint x="-680" y="640" />
            </Array>
          </mxGeometry>
        </mxCell>
        <mxCell id="Kn5c6uKsc-1rzqZwkJC5-25" value="" style="group" connectable="0" vertex="1" parent="1">
          <mxGeometry x="-490" y="600" width="130" height="80" as="geometry" />
        </mxCell>
        <mxCell id="Kn5c6uKsc-1rzqZwkJC5-26" value="Admin" style="rounded=0;whiteSpace=wrap;html=1;" vertex="1" parent="Kn5c6uKsc-1rzqZwkJC5-25">
          <mxGeometry x="10" width="120" height="80" as="geometry" />
        </mxCell>
        <mxCell id="Kn5c6uKsc-1rzqZwkJC5-27" value="" style="rounded=0;whiteSpace=wrap;html=1;" vertex="1" parent="Kn5c6uKsc-1rzqZwkJC5-25">
          <mxGeometry y="13.333333333333332" width="20" height="13.333333333333332" as="geometry" />
        </mxCell>
        <mxCell id="Kn5c6uKsc-1rzqZwkJC5-28" value="" style="rounded=0;whiteSpace=wrap;html=1;" vertex="1" parent="Kn5c6uKsc-1rzqZwkJC5-25">
          <mxGeometry y="53.33333333333333" width="20" height="13.333333333333332" as="geometry" />
        </mxCell>
        <mxCell id="Kn5c6uKsc-1rzqZwkJC5-29" value="" style="endArrow=classic;html=1;rounded=0;" edge="1" parent="1">
          <mxGeometry width="50" height="50" relative="1" as="geometry">
            <mxPoint x="-400" y="170" as="sourcePoint" />
            <mxPoint x="-240" y="100" as="targetPoint" />
            <Array as="points">
              <mxPoint x="-360" y="170" />
              <mxPoint x="-360" y="100" />
            </Array>
          </mxGeometry>
        </mxCell>
        <mxCell id="Kn5c6uKsc-1rzqZwkJC5-30" value="" style="group" connectable="0" vertex="1" parent="1">
          <mxGeometry x="-250" y="70" width="130" height="50" as="geometry" />
        </mxCell>
        <mxCell id="Kn5c6uKsc-1rzqZwkJC5-31" value="products.php" style="rounded=0;whiteSpace=wrap;html=1;" vertex="1" parent="Kn5c6uKsc-1rzqZwkJC5-30">
          <mxGeometry x="10" width="120" height="50" as="geometry" />
        </mxCell>
        <mxCell id="Kn5c6uKsc-1rzqZwkJC5-32" value="" style="rounded=0;whiteSpace=wrap;html=1;" vertex="1" parent="Kn5c6uKsc-1rzqZwkJC5-30">
          <mxGeometry y="8.333333333333334" width="20" height="8.333333333333334" as="geometry" />
        </mxCell>
        <mxCell id="Kn5c6uKsc-1rzqZwkJC5-33" value="" style="rounded=0;whiteSpace=wrap;html=1;" vertex="1" parent="Kn5c6uKsc-1rzqZwkJC5-30">
          <mxGeometry y="33.333333333333336" width="20" height="8.333333333333334" as="geometry" />
        </mxCell>
        <mxCell id="Kn5c6uKsc-1rzqZwkJC5-34" value="" style="group" connectable="0" vertex="1" parent="1">
          <mxGeometry x="-250" y="130" width="130" height="50" as="geometry" />
        </mxCell>
        <mxCell id="Kn5c6uKsc-1rzqZwkJC5-35" value="sevices.php" style="rounded=0;whiteSpace=wrap;html=1;" vertex="1" parent="Kn5c6uKsc-1rzqZwkJC5-34">
          <mxGeometry x="10" width="120" height="50" as="geometry" />
        </mxCell>
        <mxCell id="Kn5c6uKsc-1rzqZwkJC5-36" value="" style="rounded=0;whiteSpace=wrap;html=1;" vertex="1" parent="Kn5c6uKsc-1rzqZwkJC5-34">
          <mxGeometry y="8.333333333333334" width="20" height="8.333333333333334" as="geometry" />
        </mxCell>
        <mxCell id="Kn5c6uKsc-1rzqZwkJC5-37" value="" style="rounded=0;whiteSpace=wrap;html=1;" vertex="1" parent="Kn5c6uKsc-1rzqZwkJC5-34">
          <mxGeometry y="33.333333333333336" width="20" height="8.333333333333334" as="geometry" />
        </mxCell>
        <mxCell id="Kn5c6uKsc-1rzqZwkJC5-38" value="" style="group" connectable="0" vertex="1" parent="1">
          <mxGeometry x="-250" y="190" width="130" height="50" as="geometry" />
        </mxCell>
        <mxCell id="Kn5c6uKsc-1rzqZwkJC5-39" value="cart.php" style="rounded=0;whiteSpace=wrap;html=1;" vertex="1" parent="Kn5c6uKsc-1rzqZwkJC5-38">
          <mxGeometry x="10" width="120" height="50" as="geometry" />
        </mxCell>
        <mxCell id="Kn5c6uKsc-1rzqZwkJC5-40" value="" style="rounded=0;whiteSpace=wrap;html=1;" vertex="1" parent="Kn5c6uKsc-1rzqZwkJC5-38">
          <mxGeometry y="8.333333333333332" width="20" height="8.333333333333332" as="geometry" />
        </mxCell>
        <mxCell id="Kn5c6uKsc-1rzqZwkJC5-41" value="" style="rounded=0;whiteSpace=wrap;html=1;" vertex="1" parent="Kn5c6uKsc-1rzqZwkJC5-38">
          <mxGeometry y="33.33333333333333" width="20" height="8.333333333333332" as="geometry" />
        </mxCell>
        <mxCell id="Kn5c6uKsc-1rzqZwkJC5-42" value="" style="endArrow=classic;html=1;rounded=0;entryX=0;entryY=0.5;entryDx=0;entryDy=0;" edge="1" parent="1" target="Kn5c6uKsc-1rzqZwkJC5-35">
          <mxGeometry width="50" height="50" relative="1" as="geometry">
            <mxPoint x="-400" y="190" as="sourcePoint" />
            <mxPoint x="-230" y="160" as="targetPoint" />
            <Array as="points">
              <mxPoint x="-340" y="190" />
              <mxPoint x="-340" y="155" />
            </Array>
          </mxGeometry>
        </mxCell>
        <mxCell id="Kn5c6uKsc-1rzqZwkJC5-43" value="" style="endArrow=classic;html=1;rounded=0;exitX=0.994;exitY=0.905;exitDx=0;exitDy=0;exitPerimeter=0;" edge="1" parent="1">
          <mxGeometry width="50" height="50" relative="1" as="geometry">
            <mxPoint x="-400" y="214.00000000000003" as="sourcePoint" />
            <mxPoint x="-240" y="216" as="targetPoint" />
            <Array as="points">
              <mxPoint x="-239.28" y="215.65" />
            </Array>
          </mxGeometry>
        </mxCell>
        <mxCell id="Kn5c6uKsc-1rzqZwkJC5-44" value="" style="group" connectable="0" vertex="1" parent="1">
          <mxGeometry x="-250" y="250" width="130" height="50" as="geometry" />
        </mxCell>
        <mxCell id="Kn5c6uKsc-1rzqZwkJC5-45" value="orders.php" style="rounded=0;whiteSpace=wrap;html=1;" vertex="1" parent="Kn5c6uKsc-1rzqZwkJC5-44">
          <mxGeometry x="10" width="120" height="50" as="geometry" />
        </mxCell>
        <mxCell id="Kn5c6uKsc-1rzqZwkJC5-46" value="" style="rounded=0;whiteSpace=wrap;html=1;" vertex="1" parent="Kn5c6uKsc-1rzqZwkJC5-44">
          <mxGeometry y="8.333333333333332" width="20" height="8.333333333333332" as="geometry" />
        </mxCell>
        <mxCell id="Kn5c6uKsc-1rzqZwkJC5-47" value="" style="rounded=0;whiteSpace=wrap;html=1;" vertex="1" parent="Kn5c6uKsc-1rzqZwkJC5-44">
          <mxGeometry y="33.33333333333333" width="20" height="8.333333333333332" as="geometry" />
        </mxCell>
        <mxCell id="Kn5c6uKsc-1rzqZwkJC5-49" value="" style="group" connectable="0" vertex="1" parent="1">
          <mxGeometry x="-250" y="310" width="130" height="50" as="geometry" />
        </mxCell>
        <mxCell id="Kn5c6uKsc-1rzqZwkJC5-50" value="booknow.php" style="rounded=0;whiteSpace=wrap;html=1;" vertex="1" parent="Kn5c6uKsc-1rzqZwkJC5-49">
          <mxGeometry x="10" width="120" height="50" as="geometry" />
        </mxCell>
        <mxCell id="Kn5c6uKsc-1rzqZwkJC5-51" value="" style="rounded=0;whiteSpace=wrap;html=1;" vertex="1" parent="Kn5c6uKsc-1rzqZwkJC5-49">
          <mxGeometry y="8.333333333333332" width="20" height="8.333333333333332" as="geometry" />
        </mxCell>
        <mxCell id="Kn5c6uKsc-1rzqZwkJC5-52" value="" style="rounded=0;whiteSpace=wrap;html=1;" vertex="1" parent="Kn5c6uKsc-1rzqZwkJC5-49">
          <mxGeometry y="33.33333333333333" width="20" height="8.333333333333332" as="geometry" />
        </mxCell>
        <mxCell id="Kn5c6uKsc-1rzqZwkJC5-57" value="" style="group" connectable="0" vertex="1" parent="1">
          <mxGeometry x="-250" y="370" width="130" height="50" as="geometry" />
        </mxCell>
        <mxCell id="Kn5c6uKsc-1rzqZwkJC5-58" value="payment.php" style="rounded=0;whiteSpace=wrap;html=1;" vertex="1" parent="Kn5c6uKsc-1rzqZwkJC5-57">
          <mxGeometry x="10" width="120" height="50" as="geometry" />
        </mxCell>
        <mxCell id="Kn5c6uKsc-1rzqZwkJC5-59" value="" style="rounded=0;whiteSpace=wrap;html=1;" vertex="1" parent="Kn5c6uKsc-1rzqZwkJC5-57">
          <mxGeometry y="8.333333333333332" width="20" height="8.333333333333332" as="geometry" />
        </mxCell>
        <mxCell id="Kn5c6uKsc-1rzqZwkJC5-60" value="" style="rounded=0;whiteSpace=wrap;html=1;" vertex="1" parent="Kn5c6uKsc-1rzqZwkJC5-57">
          <mxGeometry y="33.33333333333333" width="20" height="8.333333333333332" as="geometry" />
        </mxCell>
        <mxCell id="Kn5c6uKsc-1rzqZwkJC5-61" value="" style="endArrow=classic;html=1;rounded=0;entryX=0;entryY=0.5;entryDx=0;entryDy=0;" edge="1" parent="1" target="Kn5c6uKsc-1rzqZwkJC5-45">
          <mxGeometry width="50" height="50" relative="1" as="geometry">
            <mxPoint x="-400" y="230" as="sourcePoint" />
            <mxPoint x="-300" y="230" as="targetPoint" />
            <Array as="points">
              <mxPoint x="-320" y="230" />
              <mxPoint x="-320" y="275" />
            </Array>
          </mxGeometry>
        </mxCell>
        <mxCell id="Kn5c6uKsc-1rzqZwkJC5-62" value="" style="endArrow=classic;html=1;rounded=0;entryX=0;entryY=0.5;entryDx=0;entryDy=0;" edge="1" parent="1" target="Kn5c6uKsc-1rzqZwkJC5-50">
          <mxGeometry width="50" height="50" relative="1" as="geometry">
            <mxPoint x="-400" y="240" as="sourcePoint" />
            <mxPoint x="-320" y="330" as="targetPoint" />
            <Array as="points">
              <mxPoint x="-340" y="240" />
              <mxPoint x="-340" y="335" />
            </Array>
          </mxGeometry>
        </mxCell>
        <mxCell id="Kn5c6uKsc-1rzqZwkJC5-64" value="" style="endArrow=classic;html=1;rounded=0;entryX=0;entryY=0.5;entryDx=0;entryDy=0;exitX=1;exitY=1;exitDx=0;exitDy=0;" edge="1" parent="1" source="Kn5c6uKsc-1rzqZwkJC5-8">
          <mxGeometry width="50" height="50" relative="1" as="geometry">
            <mxPoint x="-400" y="300" as="sourcePoint" />
            <mxPoint x="-240" y="395" as="targetPoint" />
            <Array as="points">
              <mxPoint x="-360" y="250" />
              <mxPoint x="-360" y="395" />
            </Array>
          </mxGeometry>
        </mxCell>
        <mxCell id="Kn5c6uKsc-1rzqZwkJC5-65" value="" style="endArrow=classic;html=1;rounded=0;entryX=0;entryY=0.5;entryDx=0;entryDy=0;" edge="1" parent="1" target="Kn5c6uKsc-1rzqZwkJC5-67">
          <mxGeometry width="50" height="50" relative="1" as="geometry">
            <mxPoint x="-360" y="610" as="sourcePoint" />
            <mxPoint x="-230" y="530" as="targetPoint" />
            <Array as="points">
              <mxPoint x="-300" y="610" />
              <mxPoint x="-300" y="525" />
            </Array>
          </mxGeometry>
        </mxCell>
        <mxCell id="Kn5c6uKsc-1rzqZwkJC5-66" value="" style="group" connectable="0" vertex="1" parent="1">
          <mxGeometry x="-240" y="500" width="130" height="50" as="geometry" />
        </mxCell>
        <mxCell id="Kn5c6uKsc-1rzqZwkJC5-67" value="users.php" style="rounded=0;whiteSpace=wrap;html=1;" vertex="1" parent="Kn5c6uKsc-1rzqZwkJC5-66">
          <mxGeometry x="10" width="120" height="50" as="geometry" />
        </mxCell>
        <mxCell id="Kn5c6uKsc-1rzqZwkJC5-68" value="" style="rounded=0;whiteSpace=wrap;html=1;" vertex="1" parent="Kn5c6uKsc-1rzqZwkJC5-66">
          <mxGeometry y="8.333333333333332" width="20" height="8.333333333333332" as="geometry" />
        </mxCell>
        <mxCell id="Kn5c6uKsc-1rzqZwkJC5-69" value="" style="rounded=0;whiteSpace=wrap;html=1;" vertex="1" parent="Kn5c6uKsc-1rzqZwkJC5-66">
          <mxGeometry y="33.33333333333333" width="20" height="8.333333333333332" as="geometry" />
        </mxCell>
        <mxCell id="Kn5c6uKsc-1rzqZwkJC5-70" value="" style="group" connectable="0" vertex="1" parent="1">
          <mxGeometry x="-240" y="560" width="130" height="50" as="geometry" />
        </mxCell>
        <mxCell id="Kn5c6uKsc-1rzqZwkJC5-71" value="products.php" style="rounded=0;whiteSpace=wrap;html=1;" vertex="1" parent="Kn5c6uKsc-1rzqZwkJC5-70">
          <mxGeometry x="10" width="120" height="50" as="geometry" />
        </mxCell>
        <mxCell id="Kn5c6uKsc-1rzqZwkJC5-72" value="" style="rounded=0;whiteSpace=wrap;html=1;" vertex="1" parent="Kn5c6uKsc-1rzqZwkJC5-70">
          <mxGeometry y="8.333333333333332" width="20" height="8.333333333333332" as="geometry" />
        </mxCell>
        <mxCell id="Kn5c6uKsc-1rzqZwkJC5-73" value="" style="rounded=0;whiteSpace=wrap;html=1;" vertex="1" parent="Kn5c6uKsc-1rzqZwkJC5-70">
          <mxGeometry y="33.33333333333333" width="20" height="8.333333333333332" as="geometry" />
        </mxCell>
        <mxCell id="Kn5c6uKsc-1rzqZwkJC5-75" value="" style="group" connectable="0" vertex="1" parent="1">
          <mxGeometry x="-240" y="620" width="130" height="50" as="geometry" />
        </mxCell>
        <mxCell id="Kn5c6uKsc-1rzqZwkJC5-76" value="appointment.php" style="rounded=0;whiteSpace=wrap;html=1;" vertex="1" parent="Kn5c6uKsc-1rzqZwkJC5-75">
          <mxGeometry x="10" width="120" height="50" as="geometry" />
        </mxCell>
        <mxCell id="Kn5c6uKsc-1rzqZwkJC5-77" value="" style="rounded=0;whiteSpace=wrap;html=1;" vertex="1" parent="Kn5c6uKsc-1rzqZwkJC5-75">
          <mxGeometry y="8.333333333333332" width="20" height="8.333333333333332" as="geometry" />
        </mxCell>
        <mxCell id="Kn5c6uKsc-1rzqZwkJC5-78" value="" style="rounded=0;whiteSpace=wrap;html=1;" vertex="1" parent="Kn5c6uKsc-1rzqZwkJC5-75">
          <mxGeometry y="33.33333333333333" width="20" height="8.333333333333332" as="geometry" />
        </mxCell>
        <mxCell id="Kn5c6uKsc-1rzqZwkJC5-79" value="" style="group" connectable="0" vertex="1" parent="1">
          <mxGeometry x="-240" y="680" width="130" height="50" as="geometry" />
        </mxCell>
        <mxCell id="Kn5c6uKsc-1rzqZwkJC5-80" value="services.php" style="rounded=0;whiteSpace=wrap;html=1;" vertex="1" parent="Kn5c6uKsc-1rzqZwkJC5-79">
          <mxGeometry x="10" width="120" height="50" as="geometry" />
        </mxCell>
        <mxCell id="Kn5c6uKsc-1rzqZwkJC5-81" value="" style="rounded=0;whiteSpace=wrap;html=1;" vertex="1" parent="Kn5c6uKsc-1rzqZwkJC5-79">
          <mxGeometry y="8.333333333333332" width="20" height="8.333333333333332" as="geometry" />
        </mxCell>
        <mxCell id="Kn5c6uKsc-1rzqZwkJC5-82" value="" style="rounded=0;whiteSpace=wrap;html=1;" vertex="1" parent="Kn5c6uKsc-1rzqZwkJC5-79">
          <mxGeometry y="33.33333333333333" width="20" height="8.333333333333332" as="geometry" />
        </mxCell>
        <mxCell id="Kn5c6uKsc-1rzqZwkJC5-83" value="" style="endArrow=classic;html=1;rounded=0;entryX=0;entryY=0.5;entryDx=0;entryDy=0;exitX=1;exitY=0.25;exitDx=0;exitDy=0;exitPerimeter=0;" edge="1" parent="1" source="Kn5c6uKsc-1rzqZwkJC5-26" target="Kn5c6uKsc-1rzqZwkJC5-71">
          <mxGeometry width="50" height="50" relative="1" as="geometry">
            <mxPoint x="-350" y="620" as="sourcePoint" />
            <mxPoint x="-220" y="535" as="targetPoint" />
            <Array as="points">
              <mxPoint x="-290" y="620" />
              <mxPoint x="-290" y="585" />
            </Array>
          </mxGeometry>
        </mxCell>
        <mxCell id="Kn5c6uKsc-1rzqZwkJC5-85" value="" style="endArrow=classic;html=1;rounded=0;entryX=0;entryY=0.5;entryDx=0;entryDy=0;" edge="1" parent="1" target="Kn5c6uKsc-1rzqZwkJC5-76">
          <mxGeometry width="50" height="50" relative="1" as="geometry">
            <mxPoint x="-360" y="647" as="sourcePoint" />
            <mxPoint x="-230" y="657.36" as="targetPoint" />
            <Array as="points" />
          </mxGeometry>
        </mxCell>
        <mxCell id="Kn5c6uKsc-1rzqZwkJC5-87" value="" style="endArrow=classic;html=1;rounded=0;entryX=0;entryY=0.5;entryDx=0;entryDy=0;" edge="1" parent="1" target="Kn5c6uKsc-1rzqZwkJC5-80">
          <mxGeometry width="50" height="50" relative="1" as="geometry">
            <mxPoint x="-360" y="670" as="sourcePoint" />
            <mxPoint x="-300" y="720" as="targetPoint" />
            <Array as="points">
              <mxPoint x="-330" y="670" />
              <mxPoint x="-330" y="705" />
            </Array>
          </mxGeometry>
        </mxCell>
      </root>
    </mxGraphModel>
  </diagram>
</mxfile>
